<svg aria-hidden="true" style="position: absolute; width: 0; height: 0; overflow: hidden;" version="1.1" xmlns="http://www.w3.org/2000/svg" xmlns:xlink="http://www.w3.org/1999/xlink">
<defs>
<symbol id="icon-in" viewBox="0 0 32 32">
<path fill="#fff" style="fill: var(--color1, #fff)" opacity="0.1" d="M32 16c0 4.415-1.796 8.415-4.691 11.309s-6.895 4.691-11.309 4.691c-0.005 0-0.010 0-0.016 0-4.415 0-8.411-1.793-11.3-4.691l-0-0c-2.894-2.887-4.684-6.879-4.684-11.288 0-0.007 0-0.015 0-0.022v0.001c0-4.422 1.789-8.422 4.684-11.316s6.895-4.684 11.316-4.684c4.415 0 8.415 1.789 11.309 4.684 2.898 2.889 4.691 6.885 4.691 11.3 0 0.006 0 0.011 0 0.017v-0.001z"></path>
<path fill="#fff" style="fill: var(--color1, #fff)" d="M23.265 23.273v-0.007h0.007v-5.331c0-2.611-0.567-4.618-3.615-4.618-1.469 0-2.451 0.8-2.858 1.564h-0.036v-1.324h-2.895v9.709h3.011v-4.807c0-1.265 0.24-2.487 1.811-2.487 1.542 0 1.564 1.447 1.564 2.567v4.735h3.011zM8.967 13.556h3.011v9.709h-3.011v-9.709zM10.473 8.727c-0.967 0-1.745 0.778-1.745 1.745 0 0.96 0.778 1.76 1.745 1.76 0.96 0 1.745-0.8 1.745-1.76 0-0.964-0.781-1.745-1.745-1.745v0z"></path>
</symbol>
<symbol id="icon-post" viewBox="0 0 43 32">
<path fill="#757575" style="fill: var(--color2, #757575)" d="M38.667 0h-34.667c-2.213 0-4 1.787-4 4v24c0 2.187 1.787 4 4 4h34.667c2.187 0 4-1.813 4-4v-24c0-2.213-1.813-4-4-4zM38.667 2.667c0.16 0 0.347 0.027 0.507 0.080l-17.84 15.467-17.867-15.467c0.16-0.053 0.347-0.080 0.533-0.080h34.667zM38.667 29.333h-34.667c-0.747 0-1.333-0.613-1.333-1.333v-22.427l17.787 15.413c0.24 0.213 0.56 0.347 0.88 0.347 0.293 0 0.613-0.133 0.853-0.347l17.813-15.413v22.427c0 0.72-0.613 1.333-1.333 1.333z"></path>
</symbol>
<symbol id="icon-send" viewBox="0 0 32 32">
<path fill="#fff" style="fill: var(--color1, #fff)" d="M32 0l-32 18 10.213 3.787 15.787-14.787-12 16.173v8.827l5.733-6.693 7.267 2.693 5-28z"></path>
</symbol>
<symbol id="icon-smartphone" viewBox="0 0 20 32">
<path fill="#757575" style="fill: var(--color2, #757575)" d="M17 0h-14c-1.66 0-3 1.34-3 3v26c0 1.64 1.34 3 3 3h14c1.64 0 3-1.36 3-3v-26c0-1.66-1.36-3-3-3zM3 2h14c0.54 0 1 0.44 1 1v21h-16v-21c0-0.56 0.44-1 1-1zM17 30h-14c-0.56 0-1-0.46-1-1v-3h16v3c0 0.54-0.46 1-1 1z"></path>
<path fill="#757575" style="fill: var(--color2, #757575)" d="M4.7 27.46c0.38 0.38 0.38 0.96 0 1.32-0.4 0.38-1.020 0.38-1.42 0-0.176-0.166-0.285-0.4-0.285-0.66s0.11-0.494 0.285-0.66l0-0c0.4-0.36 1.020-0.36 1.42 0z"></path>
</symbol>
<symbol id="icon-facebook" viewBox="0 0 32 32">
<path fill="#fff" style="fill: var(--color1, #fff)" opacity="0.1" d="M32 16c0 4.415-1.796 8.415-4.691 11.309s-6.895 4.691-11.309 4.691c-0.005 0-0.010 0-0.016 0-4.415 0-8.411-1.793-11.3-4.691l-0-0c-2.894-2.887-4.684-6.879-4.684-11.288 0-0.007 0-0.015 0-0.022v0.001c0-4.422 1.789-8.422 4.684-11.316s6.895-4.684 11.316-4.684c4.415 0 8.415 1.789 11.309 4.684 2.898 2.889 4.691 6.885 4.691 11.3 0 0.006 0 0.011 0 0.017v-0.001z"></path>
<path fill="#fff" style="fill: var(--color1, #fff)" d="M18.422 11.142h1.324v-2.313c-0.225-0.036-1.018-0.102-1.935-0.102-1.913 0-3.222 1.2-3.222 3.411v2.044h-2.116v2.582h2.116v6.509h2.589v-6.509h2.029l0.32-2.582h-2.349v-1.782c0-0.749 0.196-1.258 1.244-1.258z"></path>
</symbol>
<symbol id="icon-insta" viewBox="0 0 32 32">
<path fill="#fff" style="fill: var(--color1, #fff)" opacity="0.1" d="M32 16c0 4.415-1.796 8.415-4.691 11.309s-6.895 4.691-11.309 4.691c-0.005 0-0.010 0-0.016 0-4.415 0-8.411-1.793-11.3-4.691l-0-0c-2.894-2.887-4.684-6.879-4.684-11.288 0-0.007 0-0.015 0-0.022v0.001c0-4.422 1.789-8.422 4.684-11.316s6.895-4.684 11.316-4.684c4.415 0 8.415 1.789 11.309 4.684 2.898 2.889 4.691 6.885 4.691 11.3 0 0.006 0 0.011 0 0.017v-0.001z"></path>
<path fill="#fff" style="fill: var(--color1, #fff)" d="M23.258 13.004c-0.036-0.778-0.16-1.309-0.342-1.767-0.191-0.505-0.478-0.936-0.843-1.286l-0.001-0.001c-0.364-0.371-0.8-0.662-1.287-0.844-0.458-0.175-0.989-0.305-1.76-0.335-0.778-0.036-1.025-0.044-3.004-0.044-1.971 0-2.218 0.007-2.996 0.036-0.771 0.036-1.302 0.16-1.767 0.342-0.487 0.182-0.924 0.465-1.287 0.844-0.371 0.364-0.655 0.8-0.836 1.287-0.182 0.458-0.305 0.989-0.342 1.76-0.036 0.778-0.044 1.025-0.044 3.004 0 1.971 0.007 2.218 0.044 2.996 0.036 0.771 0.16 1.302 0.335 1.767 0.189 0.487 0.473 0.924 0.844 1.287 0.364 0.371 0.807 0.655 1.287 0.836 0.465 0.182 0.989 0.305 1.767 0.342 0.771 0.029 1.018 0.036 2.996 0.036 1.971 0 2.218-0.007 2.996-0.036 0.771-0.036 1.302-0.16 1.767-0.342 0.977-0.387 1.737-1.146 2.115-2.098l0.009-0.025c0.182-0.465 0.305-0.996 0.342-1.767 0.029-0.778 0.044-1.025 0.044-2.996 0-1.978-0.007-2.225-0.036-2.996zM21.942 18.938c-0.029 0.713-0.145 1.091-0.247 1.353-0.247 0.633-0.749 1.135-1.382 1.382-0.255 0.095-0.64 0.218-1.345 0.247-0.771 0.036-1.004 0.044-2.938 0.044-1.942 0-2.175-0.007-2.938-0.044-0.713-0.029-1.098-0.153-1.353-0.247-0.313-0.116-0.604-0.305-0.836-0.545-0.231-0.231-0.414-0.51-0.533-0.82l-0.005-0.016c-0.102-0.255-0.225-0.64-0.255-1.353-0.036-0.764-0.044-0.996-0.044-2.938 0-1.935 0.007-2.167 0.044-2.938 0.029-0.705 0.153-1.091 0.255-1.345 0.116-0.313 0.298-0.604 0.545-0.836 0.233-0.24 0.516-0.429 0.829-0.545 0.262-0.095 0.647-0.218 1.353-0.247 0.771-0.036 0.996-0.044 2.938-0.044s2.175 0.007 2.938 0.044c0.713 0.029 1.091 0.153 1.353 0.247 0.313 0.116 0.596 0.305 0.829 0.545 0.247 0.233 0.429 0.524 0.545 0.836 0.102 0.255 0.218 0.64 0.247 1.345 0.036 0.771 0.044 1.004 0.044 2.938 0 1.942-0.007 2.175-0.044 2.938z"></path>
<path fill="#fff" style="fill: var(--color1, #fff)" d="M16.022 12.262c-2.058 0-3.738 1.673-3.738 3.738 0 2.058 1.68 3.731 3.738 3.731 2.065 0 3.738-1.673 3.738-3.731 0-2.065-1.673-3.738-3.738-3.738zM16.022 18.422c-1.338 0-2.422-1.084-2.422-2.422s1.084-2.429 2.422-2.429 2.422 1.091 2.422 2.429c0 1.338-1.084 2.422-2.422 2.422zM20.778 12.116c0 0.48-0.385 0.873-0.873 0.873-0.48 0-0.873-0.393-0.873-0.873 0-0.487 0.393-0.873 0.873-0.873 0.487 0 0.873 0.385 0.873 0.873z"></path>
</symbol>
<symbol id="icon-twitter" viewBox="0 0 32 32">
<path fill="#2196f3" style="fill: var(--color3, #2196f3)" d="M32 16c0 4.415-1.796 8.415-4.691 11.309s-6.895 4.691-11.309 4.691c-0.005 0-0.010 0-0.016 0-4.415 0-8.411-1.793-11.3-4.691l-0-0c-2.894-2.887-4.684-6.879-4.684-11.288 0-0.007 0-0.015 0-0.022v0.001c0-4.422 1.789-8.422 4.684-11.316s6.895-4.684 11.316-4.684c4.415 0 8.415 1.789 11.309 4.684 2.898 2.889 4.691 6.885 4.691 11.3 0 0.006 0 0.011 0 0.017v-0.001z"></path>
<path fill="#fff" style="fill: var(--color1, #fff)" d="M23.273 11.484c-0.545 0.24-1.12 0.4-1.724 0.473 0.618-0.371 1.091-0.945 1.316-1.644-0.582 0.342-1.215 0.582-1.891 0.72-0.548-0.581-1.323-0.943-2.181-0.945h-0c-1.647 0-2.982 1.335-2.982 2.982v0c0 0.24 0.022 0.465 0.073 0.684-2.485-0.126-4.671-1.309-6.133-3.105l-0.012-0.015c-0.262 0.444-0.407 0.953-0.407 1.505 0 1.033 0.531 1.949 1.324 2.48-0.48-0.007-0.953-0.153-1.353-0.371v0.036c0.005 1.438 1.020 2.638 2.373 2.927l0.020 0.004c-0.24 0.065-0.509 0.095-0.785 0.095-0.189 0-0.378-0.007-0.56-0.051 0.395 1.194 1.487 2.046 2.782 2.080l0.004 0c-1.009 0.793-2.297 1.271-3.696 1.271-0.251 0-0.497-0.015-0.74-0.045l0.029 0.003c1.316 0.851 2.88 1.338 4.575 1.338 5.484 0 8.487-4.545 8.487-8.487 0-0.131-0.007-0.255-0.015-0.385 0.589-0.415 1.091-0.945 1.498-1.549z"></path>
</symbol>
</defs>
</svg>
